HIERARCHY
ROOT Root
{
  OFFSET 0.0 0.0 0.0
  CHANNELS 6 Xposition Yposition Zposition Zrotation Yrotation Xrotation
  JOINT Hips
  {
    OFFSET 0.0 100.0 0.0
    CHANNELS 6 Xposition Yposition Zposition Zrotation Yrotation Xrotation
    JOINT Spine1
    {
      OFFSET -0.013727 5.003763 -0.053727
      CHANNELS 3 Zrotation Yrotation Xrotation
      JOINT Spine2
      {
        OFFSET -0.0 7.125301 -0.029825
        CHANNELS 3 Zrotation Yrotation Xrotation
        JOINT Chest
        {
          OFFSET -1e-06 7.550063 -0.815971
          CHANNELS 3 Zrotation Yrotation Xrotation
          JOINT Neck1
          {
            OFFSET -0.181677 26.311295 -0.553348
            CHANNELS 3 Zrotation Yrotation Xrotation
            JOINT Neck2
            {
              OFFSET -3e-06 7.709397 2.302585
              CHANNELS 3 Zrotation Yrotation Xrotation
              JOINT Head
              {
                OFFSET -5e-06 6.128916 1.953709
                CHANNELS 3 Zrotation Yrotation Xrotation
                JOINT HeadEnd
                {
                  OFFSET 0.003598 16.065403 -1.835379
                  CHANNELS 3 Zrotation Yrotation Xrotation
                }
                JOINT Jaw
                {
                  OFFSET 0.002637 0.475592 3.094941
                  CHANNELS 3 Zrotation Yrotation Xrotation
                }
                JOINT LeftEye
                {
                  OFFSET 3.206381 5.380205 7.586883
                  CHANNELS 3 Zrotation Yrotation Xrotation
                }
                JOINT RightEye
                {
                  OFFSET -3.22244 5.361869 7.558234
                  CHANNELS 3 Zrotation Yrotation Xrotation
                }
              }
            }
          }
          JOINT LeftShoulder
          {
            OFFSET 1.621652 23.237164 5.113413
            CHANNELS 3 Zrotation Yrotation Xrotation
            JOINT LeftArm
            {
              OFFSET 14.919846 2e-06 -5.502326
              CHANNELS 3 Zrotation Yrotation Xrotation
              JOINT LeftForeArm
              {
                OFFSET 28.739307 0.0 -0.002588
                CHANNELS 3 Zrotation Yrotation Xrotation
                JOINT LeftHand
                {
                  OFFSET 27.093981 -1e-06 0.002609
                  CHANNELS 3 Zrotation Yrotation Xrotation
                  JOINT LeftHandThumb1
                  {
                    OFFSET 2.276482 -1.392045 3.191413
                    CHANNELS 3 Zrotation Yrotation Xrotation
                    JOINT LeftHandThumb2
                    {
                      OFFSET 4.012836 -1.828127 1.641654
                      CHANNELS 3 Zrotation Yrotation Xrotation
                      JOINT LeftHandThumb3
                      {
                        OFFSET 2.798515 0.0 -3e-06
                        CHANNELS 3 Zrotation Yrotation Xrotation
                        JOINT LeftHandThumbEnd
                        {
                          OFFSET 3.180793 -4e-06 4e-06
                          CHANNELS 3 Zrotation Yrotation Xrotation
                        }
                      }
                    }
                  }
                  JOINT LeftHandIndex1
                  {
                    OFFSET 3.247555 -0.531998 2.296169
                    CHANNELS 3 Zrotation Yrotation Xrotation
                    JOINT LeftHandIndex2
                    {
                      OFFSET 6.364578 0.01206 0.1786
                      CHANNELS 3 Zrotation Yrotation Xrotation
                      JOINT LeftHandIndex3
                      {
                        OFFSET 3.662364 0.0 0.0
                        CHANNELS 3 Zrotation Yrotation Xrotation
                        JOINT LeftHandIndex4
                        {
                          OFFSET 2.329242 4e-06 4e-06
                          CHANNELS 3 Zrotation Yrotation Xrotation
                          JOINT LeftHandIndexEnd
                          {
                            OFFSET 2.759615 -0.180537 -0.113024
                            CHANNELS 3 Zrotation Yrotation Xrotation
                          }
                        }
                      }
                    }
                  }
                  JOINT LeftHandMiddle1
                  {
                    OFFSET 3.163495 0.240981 1.000332
                    CHANNELS 3 Zrotation Yrotation Xrotation
                    JOINT LeftHandMiddle2
                    {
                      OFFSET 6.19078 -0.259278 -1.002548
                      CHANNELS 3 Zrotation Yrotation Xrotation
                      JOINT LeftHandMiddle3
                      {
                        OFFSET 4.35652 -4e-06 -1e-06
                        CHANNELS 3 Zrotation Yrotation Xrotation
                        JOINT LeftHandMiddle4
                        {
                          OFFSET 2.996877 -8e-06 0.0
                          CHANNELS 3 Zrotation Yrotation Xrotation
                          JOINT LeftHandMiddleEnd
                          {
                            OFFSET 2.304287 -0.294569 -0.031741
                            CHANNELS 3 Zrotation Yrotation Xrotation
                          }
                        }
                      }
                    }
                  }
                  JOINT LeftHandRing1
                  {
                    OFFSET 2.882643 -0.053652 -0.322543
                    CHANNELS 3 Zrotation Yrotation Xrotation
                    JOINT LeftHandRing2
                    {
                      OFFSET 5.854541 -0.486202 -1.373841
                      CHANNELS 3 Zrotation Yrotation Xrotation
                      JOINT LeftHandRing3
                      {
                        OFFSET 4.350578 0.0 3e-06
                        CHANNELS 3 Zrotation Yrotation Xrotation
                        JOINT LeftHandRing4
                        {
                          OFFSET 2.651321 7e-06 2e-06
                          CHANNELS 3 Zrotation Yrotation Xrotation
                          JOINT LeftHandRingEnd
                          {
                            OFFSET 1.936105 0.077687 -7.1e-05
                            CHANNELS 3 Zrotation Yrotation Xrotation
                          }
                        }
                      }
                    }
                  }
                  JOINT LeftHandPinky1
                  {
                    OFFSET 2.8655 -0.310005 -1.600378
                    CHANNELS 3 Zrotation Yrotation Xrotation
                    JOINT LeftHandPinky2
                    {
                      OFFSET 5.087849 -1.331141 -1.77123
                      CHANNELS 3 Zrotation Yrotation Xrotation
                      JOINT LeftHandPinky3
                      {
                        OFFSET 3.070974 4e-06 0.0
                        CHANNELS 3 Zrotation Yrotation Xrotation
                        JOINT LeftHandPinky4
                        {
                          OFFSET 1.549672 0.0 1e-06
                          CHANNELS 3 Zrotation Yrotation Xrotation
                          JOINT LeftHandPinkyEnd
                          {
                            OFFSET 1.944893 -0.157802 0.057219
                            CHANNELS 3 Zrotation Yrotation Xrotation
                          }
                        }
                      }
                    }
                  }
                }
              }
            }
          }
          JOINT RightShoulder
          {
            OFFSET -1.380118 23.180309 5.214158
            CHANNELS 3 Zrotation Yrotation Xrotation
            JOINT RightArm
            {
              OFFSET -15.037196 1.2e-05 -5.545604
              CHANNELS 3 Zrotation Yrotation Xrotation
              JOINT RightForeArm
              {
                OFFSET -28.736639 2e-06 -0.002597
                CHANNELS 3 Zrotation Yrotation Xrotation
                JOINT RightHand
                {
                  OFFSET -27.133619 -0.0 0.002613
                  CHANNELS 3 Zrotation Yrotation Xrotation
                  JOINT RightHandThumb1
                  {
                    OFFSET -2.274032 -1.383988 3.163127
                    CHANNELS 3 Zrotation Yrotation Xrotation
                    JOINT RightHandThumb2
                    {
                      OFFSET -4.011429 -1.827466 1.640914
                      CHANNELS 3 Zrotation Yrotation Xrotation
                      JOINT RightHandThumb3
                      {
                        OFFSET -2.794935 -4e-06 -3e-06
                        CHANNELS 3 Zrotation Yrotation Xrotation
                        JOINT RightHandThumbEnd
                        {
                          OFFSET -3.183852 4e-06 1e-06
                          CHANNELS 3 Zrotation Yrotation Xrotation
                        }
                      }
                    }
                  }
                  JOINT RightHandIndex1
                  {
                    OFFSET -3.253266 -0.520057 2.282866
                    CHANNELS 3 Zrotation Yrotation Xrotation
                    JOINT RightHandIndex2
                    {
                      OFFSET -6.341917 0.012471 0.178266
                      CHANNELS 3 Zrotation Yrotation Xrotation
                      JOINT RightHandIndex3
                      {
                        OFFSET -3.654871 -8e-06 -0.0
                        CHANNELS 3 Zrotation Yrotation Xrotation
                        JOINT RightHandIndex4
                        {
                          OFFSET -2.327586 0.0 1e-06
                          CHANNELS 3 Zrotation Yrotation Xrotation
                          JOINT RightHandIndexEnd
                          {
                            OFFSET -2.76179 -0.180656 -0.113078
                            CHANNELS 3 Zrotation Yrotation Xrotation
                          }
                        }
                      }
                    }
                  }
                  JOINT RightHandMiddle1
                  {
                    OFFSET -3.168106 0.246593 1.00103
                    CHANNELS 3 Zrotation Yrotation Xrotation
                    JOINT RightHandMiddle2
                    {
                      OFFSET -6.180828 -0.258836 -1.000895
                      CHANNELS 3 Zrotation Yrotation Xrotation
                      JOINT RightHandMiddle3
                      {
                        OFFSET -4.348901 0.0 -0.0
                        CHANNELS 3 Zrotation Yrotation Xrotation
                        JOINT RightHandMiddle4
                        {
                          OFFSET -3.00024 -4e-06 -2e-06
                          CHANNELS 3 Zrotation Yrotation Xrotation
                          JOINT RightHandMiddleEnd
                          {
                            OFFSET -2.30252 -0.29437 -0.031706
                            CHANNELS 3 Zrotation Yrotation Xrotation
                          }
                        }
                      }
                    }
                  }
                  JOINT RightHandRing1
                  {
                    OFFSET -2.88569 -0.067952 -0.308858
                    CHANNELS 3 Zrotation Yrotation Xrotation
                    JOINT RightHandRing2
                    {
                      OFFSET -5.854198 -0.48613 -1.373731
                      CHANNELS 3 Zrotation Yrotation Xrotation
                      JOINT RightHandRing3
                      {
                        OFFSET -4.33881 -4e-06 -0.0
                        CHANNELS 3 Zrotation Yrotation Xrotation
                        JOINT RightHandRing4
                        {
                          OFFSET -2.654903 -4e-06 4e-06
                          CHANNELS 3 Zrotation Yrotation Xrotation
                          JOINT RightHandRingEnd
                          {
                            OFFSET -1.933568 0.077527 -5.2e-05
                            CHANNELS 3 Zrotation Yrotation Xrotation
                          }
                        }
                      }
                    }
                  }
                  JOINT RightHandPinky1
                  {
                    OFFSET -2.866425 -0.342796 -1.584145
                    CHANNELS 3 Zrotation Yrotation Xrotation
                    JOINT RightHandPinky2
                    {
                      OFFSET -5.091371 -1.332055 -1.772385
                      CHANNELS 3 Zrotation Yrotation Xrotation
                      JOINT RightHandPinky3
                      {
                        OFFSET -3.062664 -4e-06 1e-06
                        CHANNELS 3 Zrotation Yrotation Xrotation
                        JOINT RightHandPinky4
                        {
                          OFFSET -1.546529 4e-06 -2e-06
                          CHANNELS 3 Zrotation Yrotation Xrotation
                          JOINT RightHandPinkyEnd
                          {
                            OFFSET -1.945119 -0.157718 0.057211
                            CHANNELS 3 Zrotation Yrotation Xrotation
                          }
                        }
                      }
                    }
                  }
                }
              }
            }
          }
        }
      }
    }
    JOINT LeftLeg
    {
      OFFSET 10.043214 -8.434526 2.595655
      CHANNELS 3 Zrotation Yrotation Xrotation
      JOINT LeftShin
      {
        OFFSET -1e-06 -43.221752 -0.802913
        CHANNELS 3 Zrotation Yrotation Xrotation
        JOINT LeftFoot
        {
          OFFSET 1e-06 -42.155094 -3.481523
          CHANNELS 3 Zrotation Yrotation Xrotation
          JOINT LeftToeBase
          {
            OFFSET 0.0 -5.059472 13.231529
            CHANNELS 3 Zrotation Yrotation Xrotation
            JOINT LeftToeEnd
            {
              OFFSET -0.009607 -1.647619 6.513017
              CHANNELS 3 Zrotation Yrotation Xrotation
            }
          }
        }
      }
    }
    JOINT RightLeg
    {
      OFFSET -10.047278 -8.29526 2.620317
      CHANNELS 3 Zrotation Yrotation Xrotation
      JOINT RightShin
      {
        OFFSET 1e-06 -43.362206 -0.805556
        CHANNELS 3 Zrotation Yrotation Xrotation
        JOINT RightFoot
        {
          OFFSET 2e-06 -42.117393 -3.478398
          CHANNELS 3 Zrotation Yrotation Xrotation
          JOINT RightToeBase
          {
            OFFSET -0.0 -5.079609 13.284196
            CHANNELS 3 Zrotation Yrotation Xrotation
            JOINT RightToeEnd
            {
              OFFSET 0.009532 -1.634378 6.460591
              CHANNELS 3 Zrotation Yrotation Xrotation
            }
          }
        }
      }
    }
  }
}
MOTION
Frames: 4
Frame Time: 0.03333333333333333
0.0 0.0 0.0 0.0 -0.0 0.0 6.432903 99.896263 251.27179 -1.562837 6.321971 -0.415747 1.388563 0.825139 1.474698 -0.311477 0.470739 -4.237636 -1.169062 -1.822567 10.432607 1.849608 1.801592 2.387985 -1.460416 -1.791425 -3.430409 -0.529325 -2.790725 -4.367573 7.7e-05 -2.3e-05 6e-06 0.013783 -0.105447 -0.020632 0.747925 -3.818385 -10.627593 -0.725061 3.609696 -10.606568 -20.698643 -3.358908 16.437681 -50.691975 -6.833126 12.769958 0.25252 -28.10326 -0.008225 -7.769755 7.23771 -25.672602 -5.88211 9.861293 0.702591 -10.93688 -0.360575 7.156211 0.0 8.774833 -0.0 -15.932282 18.092703 6.368823 -1.844034 2.498506 -2.507279 -10.163606 4.678949 4.621113 -20.97604 -4e-06 1e-06 -21.226303 2.451698 -3.594003 -0.0 -6e-06 -0.0 -1.362682 2.240799 -0.746324 -21.334929 0.58491 3.008325 -13.821221 -3e-06 2e-06 -23.887184 -0.249079 -0.839484 -60.644302 2.340388 -1.336447 -0.294025 1.679688 0.833257 -14.218219 0.093215 1.300581 -34.21207 -0.287565 0.96717 -20.033226 0.964537 1.212844 0.0 -0.0 -0.0 -3.440391 0.788234 0.501656 -15.9282 -3.167312 2.999709 -6.33883 -1e-06 1e-06 -18.123459 3.648185 -4.905674 -5e-06 0.0 -2e-06 13.921193 7.946039 15.752119 53.565392 5.244606 12.862397 0.288687 35.409649 0.420634 4.885952 -2.576872 -11.096706 2.243541 -5.255037 -3.180157 14.282896 -0.826594 6.952505 -3e-06 -12.690609 -0.0 16.264101 -17.666412 2.48771 1.665666 -1.955921 -2.878301 4.7278 -4.170589 4.993926 11.020528 3e-06 -0.0 12.109054 -3.735716 -2.866785 0.0 -0.0 -0.0 1.291986 -1.92855 -1.498091 14.800132 0.567468 3.865608 14.242577 -1.341737 -6.660656 19.631971 0.143925 -0.648244 49.782581 -0.517902 -6.593326 0.353029 -1.511151 -0.03194 20.222799 3.684311 2.31663 18.787283 5e-06 1e-06 10.751633 -0.479869 1.397909 -1e-06 1e-06 -1e-06 3.273808 0.305947 -0.58011 21.48682 11.830378 2.266133 8.16293 2e-06 -1e-06 18.399088 -3.798986 -4.940575 4e-06 -0.0 -2e-06 5.18827 3.074961 -19.40061 -0.133633 0.014499 69.802094 2.222043 6.333335 6.294569 1.881224 -1.93665 -4.039976 -0.0 0.0 1e-06 5.670952 -13.76595 -9.527682 0.119553 -0.37821 9.897489 -1.170412 -3.427853 -1.300954 -1.403483 0.956756 -0.914202 0.0 0.0 -1e-06 
0.0 0.0 0.0 0.0 -0.0 0.0 6.368962 100.123505 255.36084 -1.129142 5.283972 -0.524205 1.336783 1.006768 1.593745 -0.385151 0.915867 -4.113328 -1.655115 -1.435795 10.375105 1.598401 1.929161 2.584399 -1.416137 -1.734716 -3.462716 -0.405288 -2.83927 -4.213319 7.7e-05 -2.2e-05 6e-06 0.01509 -0.112663 -0.015921 0.749444 -3.828868 -10.626501 -0.725578 3.60549 -10.607821 -20.983273 -2.891595 16.280346 -50.551712 -6.352158 12.634197 0.287304 -28.757538 -0.001999 -7.761366 7.121114 -26.087276 -5.882109 9.861291 0.702591 -10.936876 -0.360574 7.156209 1e-06 8.774829 -0.0 -15.870245 17.991476 6.364839 -1.844033 2.498505 -2.507279 -10.163604 4.678948 4.621111 -20.97603 -2e-06 2e-06 -21.226295 2.451699 -3.594002 -2e-06 -6e-06 -0.0 -1.362682 2.240799 -0.746323 -21.334921 0.584911 3.008324 -13.821218 -2e-06 2e-06 -23.887178 -0.249077 -0.839484 -60.592472 2.360721 -1.299451 -0.294025 1.679688 0.833256 -14.218214 0.093216 1.300581 -34.212055 -0.287561 0.96717 -20.033222 0.964538 1.212843 -1e-06 0.0 -0.0 -3.44039 0.788234 0.501656 -15.928192 -3.16731 2.999709 -6.338828 -0.0 1e-06 -18.123453 3.648185 -4.905672 -5e-06 -0.0 -2e-06 13.30441 8.50909 15.664515 52.959045 6.021639 12.978575 0.095036 36.430492 0.36584 4.66512 -2.532147 -10.874032 2.243543 -5.255038 -3.180159 14.282896 -0.826594 6.952506 -3e-06 -12.690609 -1e-06 16.230968 -17.65729 2.511895 1.665667 -1.955922 -2.878299 4.7278 -4.170588 4.993927 11.020529 3e-06 -2e-06 12.109057 -3.735715 -2.866786 0.0 -0.0 -0.0 1.291986 -1.928551 -1.49809 14.800134 0.567469 3.865609 14.242577 -1.341735 -6.660661 19.631973 0.143929 -0.648244 49.831638 -0.507917 -6.535384 0.353029 -1.511151 -0.031939 20.222801 3.684312 2.31663 18.787279 5e-06 1e-06 10.751633 -0.479867 1.397906 -2e-06 1e-06 0.0 3.273808 0.305947 -0.580113 21.486824 11.830379 2.266135 8.16293 1e-06 -1e-06 18.399092 -3.798986 -4.940578 4e-06 -1e-06 -2e-06 3.967804 3.972948 -23.468536 -0.022397 0.175981 65.894699 2.461102 7.335802 4.524786 1.842766 -1.932979 -4.041062 -0.0 0.0 -0.0 4.855158 -13.399182 -5.603551 0.144375 -0.363511 7.961267 -0.710951 -2.947593 -3.105206 -1.406524 0.934061 -0.914037 -0.0 0.0 -1e-06 
0.0 0.0 0.0 0.0 -0.0 0.0 6.368449 100.091995 259.354858 -0.895539 4.179862 -0.524012 1.366813 1.102521 1.664757 -0.408395 1.341268 -4.035738 -1.997756 -1.086148 10.338086 1.220849 2.118081 2.575103 -1.349381 -1.655972 -3.520327 -0.29313 -2.794815 -4.199175 7.7e-05 -2.2e-05 6e-06 0.01382 -0.10488 -0.011718 0.744484 -3.825089 -10.625937 -0.724795 3.616656 -10.612491 -21.439514 -2.480275 16.083353 -50.257118 -5.947352 12.456178 0.350372 -29.539217 -0.002218 -7.693099 7.064695 -26.670708 -5.882109 9.861291 0.702591 -10.936873 -0.360574 7.156208 0.0 8.77483 -1e-06 -15.85083 17.890284 6.331217 -1.844033 2.498505 -2.507279 -10.163603 4.678947 4.62111 -20.97603 -2e-06 2e-06 -21.226295 2.451699 -3.594002 -1e-06 -6e-06 -0.0 -1.362682 2.240799 -0.746324 -21.334921 0.584911 3.008324 -13.821218 -2e-06 2e-06 -23.887177 -0.249077 -0.839484 -60.564236 2.348242 -1.192157 -0.294025 1.679688 0.833256 -14.218213 0.093216 1.300581 -34.212055 -0.287561 0.967169 -20.033218 0.964538 1.212843 -1e-06 -0.0 -0.0 -3.44039 0.788234 0.501656 -15.928191 -3.16731 2.999709 -6.338828 -1e-06 1e-06 -18.123453 3.648186 -4.905673 -5e-06 0.0 -2e-06 12.786881 9.112937 15.570541 52.329613 6.823558 13.034762 -0.067515 37.401634 0.259092 4.591374 -2.509844 -10.626415 2.243543 -5.255042 -3.180159 14.282898 -0.826597 6.952507 -1e-06 -12.690614 1e-06 16.211617 -17.656094 2.527723 1.665668 -1.955923 -2.8783 4.727803 -4.170592 4.993927 11.020534 2e-06 -2e-06 12.109059 -3.735719 -2.866788 -1e-06 -0.0 -1e-06 1.291987 -1.928551 -1.498089 14.800136 0.567466 3.86561 14.24258 -1.341739 -6.660663 19.631979 0.143925 -0.648246 49.918697 -0.5131 -6.434343 0.353029 -1.511151 -0.031938 20.222803 3.684311 2.31663 18.787287 3e-06 -2e-06 10.751634 -0.47987 1.397905 -1e-06 1e-06 -1e-06 3.273808 0.305948 -0.580111 21.486828 11.830384 2.266132 8.162935 2e-06 -0.0 18.399096 -3.79899 -4.940579 4e-06 1e-06 -0.0 2.898046 4.920225 -26.593737 0.131416 0.318577 58.801064 1.988923 7.603889 3.66449 1.807859 -1.93148 -4.057337 -0.0 -0.0 1e-06 4.232191 -12.946158 -2.163467 0.137351 -0.303083 6.481709 -0.393922 -2.505484 -4.794434 -1.412517 0.916284 -0.917806 -0.0 0.0 -1e-06 
0.0 0.0 0.0 0.0 -0.0 0.0 6.42732 99.828957 263.237488 -0.882125 3.132274 -0.423489 1.49618 1.061374 1.683615 -0.396249 1.721272 -4.031292 -2.187391 -0.791474 10.357411 0.739 2.304082 2.421194 -1.267488 -1.450996 -3.578245 -0.185199 -2.756376 -4.286172 7.7e-05 -2.2e-05 6e-06 0.01309 -0.057436 -0.00795 0.73253 -3.77753 -10.616186 -0.715746 3.663581 -10.612548 -21.975346 -2.098603 15.885605 -49.909725 -5.743471 12.327566 0.451494 -30.222864 -0.032043 -7.661065 7.062926 -27.198771 -5.88211 9.861293 0.70259 -10.936878 -0.360575 7.156209 -0.0 8.774833 -2e-06 -15.86447 17.860846 6.257782 -1.844034 2.498507 -2.507278 -10.163605 4.678948 4.62111 -20.976038 -2e-06 2e-06 -21.226301 2.4517 -3.594004 -2e-06 -6e-06 -0.0 -1.362682 2.2408 -0.746323 -21.334927 0.584911 3.008324 -13.821222 -2e-06 2e-06 -23.887184 -0.249078 -0.839484 -60.549416 2.346854 -1.122963 -0.294025 1.679689 0.833256 -14.218219 0.093215 1.300581 -34.212074 -0.287563 0.96717 -20.033226 0.964537 1.212843 -1e-06 -0.0 0.0 -3.440391 0.788234 0.501656 -15.928196 -3.167312 2.999709 -6.33883 -1e-06 1e-06 -18.123459 3.648186 -4.905675 -5e-06 -0.0 -2e-06 12.334406 9.719532 15.576489 51.847343 7.752636 12.917968 -0.157938 38.168819 0.162994 4.583557 -2.4667 -10.287993 2.243543 -5.255039 -3.180158 14.282896 -0.826598 6.952504 -1e-06 -12.69061 2e-06 16.170641 -17.660612 2.517537 1.665668 -1.955922 -2.878298 4.727801 -4.17059 4.993926 11.020531 1e-06 -1e-06 12.109058 -3.735719 -2.866785 -1e-06 -0.0 -0.0 1.291987 -1.928552 -1.498088 14.800136 0.567464 3.865608 14.24258 -1.34174 -6.660661 19.631977 0.143923 -0.648248 49.920807 -0.528798 -6.36379 0.35303 -1.511152 -0.03194 20.222801 3.684307 2.316629 18.787283 2e-06 -1e-06 10.751633 -0.47987 1.397905 2e-06 2e-06 -0.0 3.273808 0.305946 -0.58011 21.48682 11.830379 2.266131 8.16293 1e-06 -1e-06 18.399094 -3.79899 -4.940582 4e-06 1e-06 -1e-06 2.050062 5.701515 -28.496824 0.267673 0.412717 48.597965 1.407002 7.529684 4.459843 1.789785 -1.960974 -4.171909 0.0 0.0 3e-06 3.842511 -12.50691 0.738096 0.116521 -0.187612 5.576087 -0.272619 -2.023371 -6.889818 -1.418328 0.91337 -0.882354 -0.0 0.0 -1e-06 
